<svg xmlns="http://www.w3.org/2000/svg" viewBox="0 0 400 400" font-family="'IBM Plex Sans Thai','Helvetica Neue',Arial,sans-serif">
  <defs>
    <linearGradient id="rocketGrad" x1="20" y1="220" x2="200" y2="20" gradientUnits="userSpaceOnUse">
      <stop offset="0" stop-color="#7C3AED"/>
      <stop offset="0.45" stop-color="#F0553C"/>
      <stop offset="1" stop-color="#FBBF24"/>
    </linearGradient>
    <filter id="softShadow" x="-40%" y="-40%" width="180%" height="180%">
      <feDropShadow dx="0" dy="3" stdDeviation="4" flood-color="#0D182C" flood-opacity="0.15"/>
    </filter>
    <path id="circlePath" d="M 60,200 A 140,140 0 1 1 340,200" fill="none"/>
    <path id="circlePathBottom" d="M 60,200 A 140,140 0 1 0 340,200" fill="none"/>
  </defs>

  <circle cx="200" cy="200" r="185" fill="#FFFFFF" stroke="#F5EEDC" stroke-width="3"/>
  <circle cx="200" cy="200" r="158" fill="none" stroke="url(#rocketGrad)" stroke-width="2.5" opacity="0.55"/>

  <text font-size="19" font-weight="700" letter-spacing="2.5" fill="#172033">
    <textPath href="#circlePath" startOffset="50%" text-anchor="middle">LEVEL UP YOUR BUSINESS &amp; LIFE</textPath>
  </text>
  <text font-size="20" font-weight="700" letter-spacing="3" fill="url(#rocketGrad)">
    <textPath href="#circlePathBottom" startOffset="50%" text-anchor="middle">• PUCHUP.COM •</textPath>
  </text>

  <g transform="translate(100,118) scale(0.72)" filter="url(#softShadow)">
    <circle cx="112" cy="72" r="42" fill="url(#rocketGrad)"/>
    <circle cx="112" cy="72" r="23" fill="#FFFFFF"/>
    <path d="M99 70 L125 70 L125 158 C 125 164 120 169 113 169 L111 169 C 104 169 99 164 99 158 Z" fill="url(#rocketGrad)"/>
    <path d="M112 56 L124 70 L116 70 L116 88 L108 88 L108 70 L100 70 Z" fill="url(#rocketGrad)"/>
    <path d="M99 140 C 78 144 62 156 52 174 C 72 174 88 166 99 154 Z" fill="#7C3AED"/>
    <path d="M104 156 C 90 166 82 180 79 196 C 96 190 105 178 111 164 Z" fill="#F0553C"/>
  </g>
</svg>
